<svg id="Capa_1" data-name="Capa 1" xmlns="http://www.w3.org/2000/svg" viewBox="0 0 782.25 782.25"><defs><style>.cls-1{fill:#cd0b5c;}</style></defs><path class="cls-1" d="M228.56,106.76a10.81,10.81,0,0,1,20.63-.44l29.95,89.22h35.69A10.81,10.81,0,0,1,325,202.75l20.24,57.19,41.94-153a10.81,10.81,0,0,1,20.7-.5l27.93,85.68h96A120.75,120.75,0,0,0,329.32,75,120.77,120.77,0,0,0,126.79,192.09H203.9Z"/><path class="cls-1" d="M624.71,158a33.24,33.24,0,0,0-29,49.47l-46.25,47.2a98.65,98.65,0,0,0-27.81,60.83l-7.12,86.58c-2.8,34-26.37,62.34-58.64,70.57-18.1,4.61-36.71,2.33-55.33-6.77-35.87-17.54-59-55.27-59-96.13V359l141-98.91q2.43-1.62,4.77-3.35l.15-.11h0a121.23,121.23,0,0,0,36.13-42.89H428a10.81,10.81,0,0,1-10.28-7.46l-19.18-58.86L357,298.9a10.82,10.82,0,0,1-10,8h-.39a10.8,10.8,0,0,1-10.19-7.2l-29.19-82.49H271.37a10.8,10.8,0,0,1-10.25-7.37L239.71,146,222.42,205.9A10.81,10.81,0,0,1,212,213.71H135.17A121.23,121.23,0,0,0,171.3,256.6h0l.06,0c1.86,1.38,3.77,2.71,5.71,4l140.1,97.46v11.67c0,50.08,28.53,96.39,72.69,118,15.79,7.72,31.7,11.59,47.55,11.58a99.16,99.16,0,0,0,24.46-3.09c42.33-10.79,73.23-47.82,76.88-92.14l7.12-86.58a74.28,74.28,0,0,1,20.94-45.81l47.78-48.75a32.94,32.94,0,0,0,10.13,1.58,33.26,33.26,0,0,0,0-66.52Zm0,47.61a14.35,14.35,0,1,1,14.34-14.35A14.37,14.37,0,0,1,624.71,205.61Z"/><path class="cls-1" d="M229.81,595.81H180.13v15.67h55.53l-3.43,21.33H150.67V540h81.78v21.38H180.13v13.07h49.68Z"/><path class="cls-1" d="M337,601.35c0-14.79.26-32.56.92-43.43h-.26c-4.49,18-10.48,42-19.8,74.89H293.25c-7.35-30.53-13.47-56.32-18-75.06H275c.57,10.82,1.63,28.73,1.63,44.65v30.41h-26.7V540h42.79c6.12,21.31,12.07,44.1,14.71,59.62h.17c3.57-16.36,9.55-38.05,15.89-59.62h42.66v92.83H337Z"/><path class="cls-1" d="M428.45,587.72v22.17H382.13V587.72Z"/><path class="cls-1" d="M523.48,595.81H473.81v15.67h55.52l-3.43,21.33H444.34V540h81.78v21.38H473.81v13.07h49.67Z"/><path class="cls-1" d="M573.41,598.62v34.19H544.08V540H600c23,0,35.06,11.26,35.06,26.66,0,12-6.95,19.09-16,22.22,4.92,2.11,13.55,6.51,13.55,22.3v5c0,5.32,0,12.1,1.27,16.63H604.09c-1.54-3.92-1.9-9.59-1.9-19.23v-3.12c0-8.62-2.77-11.84-14.52-11.84Zm0-19.22h18.66c8.32,0,12.9-3,12.9-9.77,0-6.21-4.23-9.73-12.9-9.73H573.41Z"/><path class="cls-1" d="M150.72,686.94l-1.73,8.3h-5.57c.05-.13,7.61-32,7.65-32.17h7.23l7.77,32.17h-5.85l-1.74-8.3Zm6.75-4.83c-1.33-6.37-2.35-10.93-2.86-13.94h-.13c-.42,3-1.5,7.93-2.76,13.94Z"/><path class="cls-1" d="M187.94,685.87c-.2,1.91-1,9.91-9.8,9.91-9.14,0-10.33-8.1-10.33-16.69,0-10.21,3.1-16.53,10.68-16.53,8.45,0,9.27,7.19,9.41,9.87h-5.51c-.12-1.21-.29-5.15-4-5.15-3.89,0-4.82,4.76-4.82,11.91,0,6.15.69,11.94,4.67,11.94,3.58,0,4-3.9,4.15-5.26Z"/><path class="cls-1" d="M197.11,686.94l-1.72,8.3h-5.57c0-.13,7.6-32,7.65-32.17h7.22l7.77,32.17h-5.84l-1.75-8.3Zm6.75-4.83c-1.32-6.37-2.34-10.93-2.85-13.94h-.13c-.43,3-1.51,7.93-2.77,13.94Z"/><path class="cls-1" d="M215.33,663.07h8.44c8.27,0,11.65,5.33,11.65,15.4,0,10.84-3.24,16.77-12.1,16.77h-8Zm5.61,27.61h2.31c4.74,0,6.42-3.58,6.42-12.17,0-7.44-1.56-10.82-6.37-10.82h-2.36Z"/><path class="cls-1" d="M256.18,680.83H245.56v9.62h11.89l-.69,4.79H240.07V663.07h16.61v4.85H245.56V676h10.62Z"/><path class="cls-1" d="M281.1,683.08c0-5.55.09-11.81.19-15.43h-.13c-1.14,6.08-3.16,17.28-5.36,27.59h-5c-1.64-9.48-3.72-21.47-4.79-27.68h-.18c.2,3.76.34,10.55.34,16.1v11.58H261V663.07h8.33c1.82,8.93,3.51,18.41,4.19,23.07h.05c.65-4.26,2.9-14.49,4.73-23.07h8.12v32.17H281.1Z"/><path class="cls-1" d="M297.73,663.07v32.17h-5.57V663.07Z"/><path class="cls-1" d="M308.28,686.94l-1.73,8.3H301c0-.13,7.6-32,7.65-32.17h7.23l7.77,32.17h-5.85l-1.74-8.3Zm6.75-4.83c-1.33-6.37-2.35-10.93-2.86-13.94H312c-.42,3-1.5,7.93-2.76,13.94Z"/><path class="cls-1" d="M335.61,663.07h8.44c8.28,0,11.65,5.33,11.65,15.4,0,10.84-3.24,16.77-12.09,16.77h-8Zm5.61,27.61h2.31c4.74,0,6.42-3.58,6.42-12.17,0-7.44-1.56-10.82-6.37-10.82h-2.36Z"/><path class="cls-1" d="M376.46,680.83H365.84v9.62h11.89l-.69,4.79H360.35V663.07H377v4.85H365.84V676h10.62Z"/><path class="cls-1" d="M409.5,685.87c-.19,1.91-1,9.91-9.79,9.91-9.15,0-10.33-8.1-10.33-16.69,0-10.21,3.1-16.53,10.68-16.53,8.45,0,9.27,7.19,9.41,9.87H404c-.13-1.21-.29-5.15-4-5.15-3.89,0-4.82,4.76-4.82,11.91,0,6.15.69,11.94,4.67,11.94,3.58,0,4-3.9,4.15-5.26Z"/><path class="cls-1" d="M418.68,686.94l-1.72,8.3h-5.57c0-.13,7.6-32,7.64-32.17h7.23L434,695.24h-5.85l-1.74-8.3Zm6.75-4.83c-1.33-6.37-2.34-10.93-2.86-13.94h-.12c-.43,3-1.51,7.93-2.77,13.94Z"/><path class="cls-1" d="M436.9,663.07h9.67c5.34,0,9.35,3.17,9.35,9.5s-3.64,9.53-9.81,9.53h-3.64v13.14H436.9Zm5.57,14.55h3c3.29,0,4.81-1.61,4.81-5.12,0-3.25-1.72-4.92-4.5-4.92h-3.35Z"/><path class="cls-1" d="M462.37,686.94l-1.73,8.3h-5.57c.05-.13,7.61-32,7.65-32.17h7.22l7.78,32.17h-5.85l-1.74-8.3Zm6.75-4.83c-1.33-6.37-2.35-10.93-2.86-13.94h-.13c-.42,3-1.5,7.93-2.76,13.94Z"/><path class="cls-1" d="M499.59,685.87c-.2,1.91-1,9.91-9.8,9.91-9.14,0-10.33-8.1-10.33-16.69,0-10.21,3.1-16.53,10.68-16.53,8.45,0,9.27,7.19,9.41,9.87H494c-.13-1.21-.29-5.15-4-5.15-3.89,0-4.82,4.76-4.82,11.91,0,6.15.69,11.94,4.67,11.94,3.58,0,4-3.9,4.15-5.26Z"/><path class="cls-1" d="M508.91,663.07v32.17h-5.58V663.07Z"/><path class="cls-1" d="M519.23,667.92h-7v-4.85h19.65v4.85h-7v27.32h-5.58Z"/><path class="cls-1" d="M537.11,686.94l-1.72,8.3h-5.57c0-.13,7.6-32,7.65-32.17h7.22l7.77,32.17h-5.84l-1.75-8.3Zm6.75-4.83c-1.33-6.37-2.34-10.93-2.85-13.94h-.13c-.43,3-1.51,7.93-2.77,13.94Z"/><path class="cls-1" d="M574.33,685.87c-.19,1.91-1,9.91-9.79,9.91-9.15,0-10.33-8.1-10.33-16.69,0-10.21,3.1-16.53,10.67-16.53,8.45,0,9.27,7.19,9.41,9.87h-5.51c-.12-1.21-.28-5.15-4-5.15-3.89,0-4.83,4.76-4.83,11.91,0,6.15.7,11.94,4.68,11.94,3.58,0,4-3.9,4.14-5.26Z"/><path class="cls-1" d="M583.65,663.07v32.17h-5.58V663.07Z"/><path class="cls-1" d="M609.63,678.91c0,11.51-3.22,16.87-10.77,16.87-7.09,0-10.46-5.28-10.46-16.93,0-11.29,3.88-16.29,10.72-16.29C606.28,662.56,609.63,667.93,609.63,678.91Zm-15.52-.11c0,7.72,1.33,12.31,4.89,12.31,3.76,0,4.92-4.28,4.92-12.29,0-7.57-1.23-11.56-4.93-11.56S594.11,671.53,594.11,678.8Zm13.61-24.11L601,660.46h-5.26l5.29-5.77Z"/><path class="cls-1" d="M614.31,695.24V663.07h6.41c7.1,18.38,8.4,21.72,8.8,23.27h.05c-.28-3.91-.29-8.69-.29-14v-9.31h5v32.17h-6.16c-7.36-19.61-8.57-22.92-9-24.36h0c.23,4,.24,8.83.24,14.59v9.77Z"/><path class="cls-1" d="M257.06,726.77H246.44v9.62h11.89l-.69,4.78H241V709h16.6v4.86H246.44v8.08h10.62Z"/><path class="cls-1" d="M261.94,741.17V709h6.41c7.1,18.39,8.4,21.72,8.8,23.28h0c-.27-3.91-.29-8.69-.29-14V709h5v32.17h-6.15c-7.36-19.6-8.57-22.91-9-24.35h0c.23,4,.24,8.82.24,14.59v9.76Z"/><path class="cls-1" d="M312.8,726.77H302.19v9.62h11.88l-.69,4.78H296.69V709H313.3v4.86H302.19v8.08H312.8Z"/><path class="cls-1" d="M337.73,729c0-5.55.09-11.81.19-15.43h-.13c-1.14,6.08-3.16,17.28-5.36,27.58h-5c-1.64-9.47-3.73-21.46-4.79-27.67h-.18c.19,3.75.34,10.55.34,16.1v11.57h-5.11V709H326c1.83,8.94,3.52,18.42,4.19,23.07h.05c.65-4.25,2.91-14.48,4.73-23.07h8.13v32.17h-5.35Z"/><path class="cls-1" d="M364.9,726.77H354.28v9.62h11.89l-.69,4.78H348.79V709H365.4v4.86H354.28v8.08H364.9Z"/><path class="cls-1" d="M375.31,727.36v13.81h-5.53V709h9.91c5.81,0,9.14,3,9.14,8.73,0,4.65-2.47,6.67-4.24,7.36,2.59,1.16,3.74,3.36,3.74,8v1.25a37.49,37.49,0,0,0,.44,6.79h-5.4a27.23,27.23,0,0,1-.55-6.85v-1.14c0-4.29-1-5.82-4.76-5.82Zm0-4.51h3c3.51,0,5-1.53,5-4.86,0-2.84-1.4-4.47-4.39-4.47h-3.57Z"/><path class="cls-1" d="M412.9,741.17h-4.25a27.05,27.05,0,0,1-.28-2.88c-1.41,2.56-3.65,3.42-6.56,3.42-6.86,0-9.37-6.17-9.37-16.44,0-11.51,4-16.77,11-16.77,8.54,0,9.26,7.19,9.4,9.33h-5.5c-.13-1.34-.49-4.62-4.07-4.62-3.94,0-5.1,5-5.1,12,0,7.47,1,11.79,4.89,11.79,3.32,0,4.28-2.55,4.28-7.47v-1.67h-4.63v-4.76H412.9Z"/><path class="cls-1" d="M434.23,726.77H423.61v9.62H435.5l-.69,4.78H418.12V709h16.61v4.86H423.61v8.08h10.62Z"/><path class="cls-1" d="M439.11,741.17V709h6.41c7.1,18.39,8.4,21.72,8.8,23.28h0c-.27-3.91-.29-8.69-.29-14V709h5v32.17h-6.15c-7.36-19.6-8.57-22.91-9-24.35h0c.23,4,.24,8.82.24,14.59v9.76Z"/><path class="cls-1" d="M483.84,731.81c-.19,1.9-1,9.9-9.79,9.9-9.15,0-10.33-8.09-10.33-16.68,0-10.22,3.1-16.53,10.68-16.53,8.45,0,9.27,7.19,9.41,9.86H478.3c-.13-1.2-.29-5.14-4-5.14-3.89,0-4.82,4.76-4.82,11.91,0,6.15.69,11.94,4.67,11.94,3.58,0,4-3.9,4.15-5.26Z"/><path class="cls-1" d="M493.16,709v32.17h-5.57V709Z"/><path class="cls-1" d="M503.71,732.87l-1.73,8.3h-5.57c0-.12,7.6-32,7.65-32.17h7.22l7.78,32.17h-5.85l-1.74-8.3Zm6.75-4.82c-1.33-6.37-2.35-10.93-2.86-13.94h-.13c-.42,3-1.5,7.93-2.77,13.94Z"/><path class="cls-1" d="M526.66,732.19c.29,2.76,1.48,5.11,4.52,5.11s4.09-1.77,4.09-4.3c0-2.74-1.34-4.29-5.49-6.21-5.59-2.56-7.78-4.88-7.78-9.64,0-5.13,3.36-8.64,9.14-8.64,7.16,0,9,4.79,9.15,9h-5.46c-.2-1.85-.73-4.6-3.79-4.6-2.41,0-3.49,1.53-3.49,3.77,0,2.4,1.11,3.5,5,5.24,5.92,2.65,8.43,5.3,8.43,10.57,0,5.07-3.13,9.21-9.94,9.21-7.27,0-9.66-4.6-9.88-9.51Z"/></svg>