<svg id="Capa_1" data-name="Capa 1" xmlns="http://www.w3.org/2000/svg" viewBox="0 0 1032.18 549.96"><defs><style>.cls-1{fill:#cd0b5c;}</style></defs><path class="cls-1" d="M156.43,144.9a9.92,9.92,0,0,1,18.93-.4l27.48,81.86h32.75a9.89,9.89,0,0,1,9.34,6.61l18.57,52.47L302,145a9.92,9.92,0,0,1,19-.45l25.62,78.61h88.1a110.78,110.78,0,0,0-185.82-107.4A110.8,110.8,0,0,0,63.06,223.19h70.75Z"/><path class="cls-1" d="M519.9,191.91a30.5,30.5,0,0,0-26.63,45.39l-42.44,43.3a90.58,90.58,0,0,0-25.51,55.82l-6.54,79.44c-2.56,31.18-24.19,57.2-53.8,64.74-16.6,4.23-33.68,2.14-50.76-6.21C281.3,458.3,260,423.68,260,386.19V376.3l129.32-90.75q2.24-1.49,4.38-3.08l.13-.09h0A111.37,111.37,0,0,0,427,243H339.4a9.93,9.93,0,0,1-9.43-6.85l-17.6-54-38.1,139a9.92,9.92,0,0,1-9.2,7.29h-.37a9.9,9.9,0,0,1-9.34-6.61l-26.78-75.68H195.71a9.93,9.93,0,0,1-9.41-6.76l-19.64-58.5-15.87,54.93a9.92,9.92,0,0,1-9.52,7.17H70.75a111.37,111.37,0,0,0,33.14,39.35h0l0,0c1.71,1.26,3.46,2.48,5.24,3.64l128.54,89.43v10.7c0,45.95,26.18,88.44,66.7,108.25,14.49,7.08,29.08,10.63,43.62,10.63a91,91,0,0,0,22.45-2.84c38.84-9.9,67.19-43.87,70.53-84.54l6.54-79.44a68.16,68.16,0,0,1,19.21-42l43.84-44.73a30.52,30.52,0,1,0,9.29-59.58Zm0,43.68a13.16,13.16,0,1,1,13.16-13.16A13.18,13.18,0,0,1,519.9,235.59Z"/><path class="cls-1" d="M552.24,356.46H506.66v14.37h50.95l-3.15,19.58H479.63V305.24h75v19.61h-48v12h45.58Z"/><path class="cls-1" d="M650.61,361.54c0-13.56.25-29.87.85-39.84h-.24c-4.12,16.47-9.61,38.51-18.17,68.71h-22.6c-6.74-28-12.35-51.68-16.55-68.87h-.2c.52,9.93,1.49,26.36,1.49,41v27.9H570.7V305.24H610c5.61,19.55,11.06,40.45,13.49,54.7h.16c3.27-15,8.76-34.91,14.57-54.7h39.15v85.17H650.61Z"/><path class="cls-1" d="M734.5,349v20.33H692V349Z"/><path class="cls-1" d="M821.69,356.46H776.11v14.37h50.95l-3.15,19.58H749.08V305.24h75v19.61h-48v12h45.58Z"/><path class="cls-1" d="M867.5,359v31.37H840.59V305.24h51.29c21.11,0,32.17,10.33,32.17,24.46,0,11-6.38,17.52-14.69,20.38,4.52,1.94,12.43,6,12.43,20.47v4.6c0,4.88,0,11.1,1.17,15.26H895.64c-1.41-3.6-1.73-8.8-1.73-17.64V369.9c0-7.91-2.54-10.86-13.32-10.86Zm0-17.64h17.12c7.64,0,11.83-2.78,11.83-9,0-5.69-3.87-8.92-11.83-8.92H867.5Z"/><path class="cls-1" d="M476.51,440.07l-1.58,7.61h-5.11c0-.11,7-29.38,7-29.51h6.63l7.13,29.51h-5.37l-1.6-7.61Zm6.2-4.43c-1.22-5.84-2.15-10-2.62-12.79H480c-.39,2.74-1.38,7.27-2.54,12.79Z"/><path class="cls-1" d="M510.66,439.09c-.18,1.75-.94,9.09-9,9.09-8.4,0-9.48-7.43-9.48-15.31,0-9.37,2.84-15.16,9.79-15.16,7.76,0,8.51,6.59,8.64,9h-5.06c-.11-1.1-.26-4.71-3.66-4.71-3.57,0-4.43,4.36-4.43,10.92,0,5.64.64,11,4.29,11,3.28,0,3.64-3.58,3.8-4.83Z"/><path class="cls-1" d="M519.08,440.07l-1.58,7.61h-5.11c0-.11,7-29.38,7-29.51H526l7.13,29.51H527.8l-1.6-7.61Zm6.19-4.43c-1.21-5.84-2.15-10-2.62-12.79h-.11c-.39,2.74-1.38,7.27-2.54,12.79Z"/><path class="cls-1" d="M535.8,418.17h7.74c7.59,0,10.69,4.89,10.69,14.13,0,9.95-3,15.38-11.1,15.38H535.8ZM541,443.51h2.11c4.35,0,5.89-3.29,5.89-11.18,0-6.82-1.43-9.92-5.84-9.92H541Z"/><path class="cls-1" d="M573.27,434.46h-9.74v8.83h10.91l-.63,4.39H558.49V418.17h15.24v4.45h-10.2V430h9.74Z"/><path class="cls-1" d="M596.14,436.53c0-5.09.09-10.84.18-14.16h-.13c-1,5.58-2.89,15.86-4.91,25.31h-4.62c-1.5-8.69-3.41-19.69-4.39-25.39h-.17c.18,3.45.31,9.68.31,14.77v10.62h-4.68V418.17h7.64c1.67,8.19,3.22,16.89,3.84,21.16h0c.59-3.9,2.66-13.28,4.34-21.16h7.45v29.51h-4.91Z"/><path class="cls-1" d="M611.4,418.17v29.51h-5.11V418.17Z"/><path class="cls-1" d="M621.08,440.07l-1.59,7.61h-5.1c0-.11,7-29.38,7-29.51H628l7.13,29.51H629.8l-1.6-7.61Zm6.19-4.43c-1.22-5.84-2.15-10-2.62-12.79h-.12c-.39,2.74-1.38,7.27-2.54,12.79Z"/><path class="cls-1" d="M646.16,418.17h7.74c7.59,0,10.69,4.89,10.69,14.13,0,9.95-3,15.38-11.1,15.38h-7.33Zm5.15,25.34h2.12c4.34,0,5.88-3.29,5.88-11.18,0-6.82-1.43-9.92-5.84-9.92h-2.16Z"/><path class="cls-1" d="M683.63,434.46h-9.74v8.83H684.8l-.63,4.39H668.85V418.17h15.24v4.45h-10.2V430h9.74Z"/><path class="cls-1" d="M714,439.09c-.17,1.75-.94,9.09-9,9.09-8.39,0-9.48-7.43-9.48-15.31,0-9.37,2.84-15.16,9.8-15.16,7.75,0,8.5,6.59,8.63,9h-5c-.12-1.1-.27-4.71-3.67-4.71-3.57,0-4.43,4.36-4.43,10.92,0,5.64.64,11,4.29,11,3.29,0,3.64-3.58,3.8-4.83Z"/><path class="cls-1" d="M722.37,440.07l-1.58,7.61h-5.11c0-.11,7-29.38,7-29.51h6.63l7.13,29.51h-5.37l-1.6-7.61Zm6.2-4.43c-1.22-5.84-2.15-10-2.62-12.79h-.12c-.39,2.74-1.38,7.27-2.54,12.79Z"/><path class="cls-1" d="M739.09,418.17H748c4.9,0,8.58,2.91,8.58,8.72s-3.34,8.74-9,8.74H744.2v12.05h-5.11Zm5.11,13.35H747c3,0,4.42-1.48,4.42-4.69,0-3-1.59-4.52-4.14-4.52H744.2Z"/><path class="cls-1" d="M762.46,440.07l-1.59,7.61h-5.1c0-.11,7-29.38,7-29.51h6.63l7.13,29.51h-5.36l-1.6-7.61Zm6.19-4.43c-1.22-5.84-2.15-10-2.62-12.79h-.12c-.39,2.74-1.38,7.27-2.54,12.79Z"/><path class="cls-1" d="M796.6,439.09c-.17,1.75-.94,9.09-9,9.09-8.39,0-9.48-7.43-9.48-15.31,0-9.37,2.84-15.16,9.8-15.16,7.75,0,8.5,6.59,8.63,9h-5.05c-.12-1.1-.27-4.71-3.67-4.71-3.57,0-4.43,4.36-4.43,10.92,0,5.64.64,11,4.29,11,3.29,0,3.64-3.58,3.8-4.83Z"/><path class="cls-1" d="M805.16,418.17v29.51H800V418.17Z"/><path class="cls-1" d="M814.63,422.63h-6.46v-4.46h18v4.46h-6.46v25.05h-5.11Z"/><path class="cls-1" d="M831,440.07l-1.59,7.61h-5.1c0-.11,7-29.38,7-29.51H838l7.13,29.51h-5.37l-1.59-7.61Zm6.19-4.43c-1.22-5.84-2.15-10-2.62-12.79h-.12c-.39,2.74-1.38,7.27-2.54,12.79Z"/><path class="cls-1" d="M865.18,439.09c-.17,1.75-.94,9.09-9,9.09-8.39,0-9.48-7.43-9.48-15.31,0-9.37,2.84-15.16,9.8-15.16,7.75,0,8.5,6.59,8.63,9h-5c-.12-1.1-.27-4.71-3.67-4.71C852.86,422,852,426.4,852,433c0,5.64.64,11,4.29,11,3.29,0,3.64-3.58,3.8-4.83Z"/><path class="cls-1" d="M873.73,418.17v29.51h-5.11V418.17Z"/><path class="cls-1" d="M897.57,432.7c0,10.56-3,15.48-9.88,15.48-6.51,0-9.6-4.85-9.6-15.53,0-10.36,3.56-14.94,9.84-14.94C894.49,417.71,897.57,422.63,897.57,432.7Zm-14.24-.1c0,7.08,1.22,11.3,4.49,11.3,3.45,0,4.51-3.93,4.51-11.28,0-6.95-1.12-10.6-4.52-10.6S883.33,425.93,883.33,432.6Zm12.49-22.12-6.13,5.29h-4.83l4.85-5.29Z"/><path class="cls-1" d="M901.86,447.68V418.17h5.89c6.51,16.86,7.7,19.93,8.07,21.35h0c-.25-3.59-.26-8-.26-12.8v-8.55h4.58v29.51h-5.64c-6.76-18-7.87-21-8.25-22.34h0c.22,3.65.23,8.09.23,13.38v9Z"/><path class="cls-1" d="M487,476.61h-9.74v8.83h10.9l-.63,4.39H472.23V460.32h15.23v4.45H477.27v7.42H487Z"/><path class="cls-1" d="M491.48,489.83V460.32h5.89c6.52,16.86,7.71,19.92,8.07,21.35h0c-.24-3.59-.26-8-.26-12.81v-8.54h4.59v29.51h-5.65c-6.76-18-7.86-21-8.24-22.34h-.05c.22,3.65.23,8.09.23,13.38v9Z"/><path class="cls-1" d="M538.16,476.61h-9.74v8.83h10.9l-.63,4.39H523.38V460.32h15.23v4.45H528.42v7.42h9.74Z"/><path class="cls-1" d="M561,478.68c0-5.09.09-10.84.18-14.16h-.12c-1.05,5.58-2.9,15.86-4.92,25.31h-4.61c-1.5-8.7-3.42-19.69-4.4-25.39H547c.18,3.45.31,9.68.31,14.77v10.62h-4.69V460.32h7.64c1.68,8.19,3.22,16.89,3.84,21.16h0c.59-3.9,2.66-13.29,4.34-21.16h7.45v29.51H561Z"/><path class="cls-1" d="M586,476.61h-9.74v8.83h10.91l-.64,4.39H571.17V460.32h15.24v4.45h-10.2v7.42H586Z"/><path class="cls-1" d="M595.51,477.16v12.67h-5.08V460.32h9.09c5.33,0,8.39,2.79,8.39,8,0,4.27-2.26,6.12-3.89,6.76,2.37,1.06,3.43,3.07,3.43,7.37v1.14a35.21,35.21,0,0,0,.4,6.24h-5a25.2,25.2,0,0,1-.5-6.29v-1.05c0-3.93-.92-5.33-4.37-5.33Zm0-4.14h2.75c3.22,0,4.55-1.41,4.55-4.46,0-2.6-1.28-4.1-4-4.1h-3.27Z"/><path class="cls-1" d="M630,489.83H626.1a23.33,23.33,0,0,1-.26-2.65c-1.29,2.35-3.35,3.14-6,3.14-6.3,0-8.59-5.66-8.59-15.08,0-10.56,3.66-15.38,10.12-15.38,7.83,0,8.49,6.59,8.62,8.56h-5.05c-.12-1.23-.45-4.25-3.74-4.25-3.6,0-4.67,4.6-4.67,11.06,0,6.85.92,10.81,4.48,10.81,3,0,3.93-2.34,3.93-6.85v-1.53h-4.25V473.3H630Z"/><path class="cls-1" d="M649.56,476.61h-9.74v8.83h10.91l-.63,4.39H634.78V460.32H650v4.45h-10.2v7.42h9.74Z"/><path class="cls-1" d="M654,489.83V460.32h5.89c6.51,16.86,7.7,19.92,8.06,21.35h0c-.25-3.59-.27-8-.27-12.81v-8.54h4.59v29.51h-5.64c-6.76-18-7.87-21-8.25-22.34h0c.21,3.65.22,8.09.22,13.38v9Z"/><path class="cls-1" d="M695.09,481.24c-.18,1.75-1,9.08-9,9.08-8.39,0-9.47-7.42-9.47-15.3,0-9.37,2.84-15.16,9.79-15.16,7.75,0,8.51,6.59,8.64,9H690c-.11-1.1-.26-4.71-3.67-4.71-3.57,0-4.42,4.36-4.42,10.92,0,5.64.64,10.95,4.28,10.95,3.29,0,3.65-3.57,3.81-4.82Z"/><path class="cls-1" d="M703.64,460.32v29.51h-5.12V460.32Z"/><path class="cls-1" d="M713.31,482.22l-1.58,7.61h-5.11c0-.12,7-29.39,7-29.51h6.62l7.13,29.51H722l-1.6-7.61Zm6.2-4.43c-1.22-5.85-2.16-10-2.63-12.79h-.11c-.39,2.74-1.38,7.27-2.54,12.79Z"/><path class="cls-1" d="M734.37,481.59c.27,2.53,1.36,4.69,4.15,4.69s3.75-1.63,3.75-3.95c0-2.52-1.23-3.93-5-5.69-5.13-2.35-7.14-4.49-7.14-8.85,0-4.71,3.08-7.93,8.38-7.93,6.57,0,8.29,4.4,8.39,8.26h-5c-.19-1.7-.67-4.22-3.48-4.22-2.21,0-3.2,1.41-3.2,3.46s1,3.21,4.55,4.81c5.43,2.43,7.73,4.85,7.73,9.69,0,4.65-2.87,8.45-9.11,8.45-6.67,0-8.87-4.22-9.07-8.72Z"/></svg>